<?xml version="1.0" encoding="UTF-8"?>
<svg version="1.1" xmlns="http://www.w3.org/2000/svg" width="512" height="512">
<path d="M0 0 C0.99422974 0.00215515 1.98845947 0.0043103 3.01281738 0.00653076 C17.48109955 0.05686686 31.66189071 0.35398296 45.875 3.3125 C46.85130371 3.51117676 47.82760742 3.70985352 48.83349609 3.91455078 C97.21339984 14.03634541 141.2005519 35.95291013 176.875 70.3125 C177.8640332 71.26068604 177.8640332 71.26068604 178.87304688 72.22802734 C188.36130305 81.37247479 197.1012044 90.66984009 204.875 101.3125 C205.73306152 102.46355017 206.59113451 103.61459177 207.44921875 104.765625 C213.48736829 112.95680614 218.84595521 121.47054105 223.875 130.3125 C224.23948242 130.94430176 224.60396484 131.57610352 224.97949219 132.22705078 C246.4740329 169.78084014 256.35126533 212.44304389 256.1875 255.4375 C256.18476578 256.9278476 256.18476578 256.9278476 256.18197632 258.44830322 C256.13719978 272.942192 255.67610213 287.05386097 252.875 301.3125 C252.71402832 302.20807617 252.55305664 303.10365234 252.38720703 304.02636719 C244.49797508 347.63313051 224.80850867 388.77106217 195.875 422.3125 C195.24078125 423.05757813 194.6065625 423.80265625 193.953125 424.5703125 C182.14198485 438.07529833 169.39139772 450.74668743 154.875 461.3125 C153.72505169 462.16899066 152.57531411 463.02576433 151.42578125 463.8828125 C143.23410474 469.9234414 134.71854922 475.28255071 125.875 480.3125 C125.24319824 480.67698242 124.61139648 481.04146484 123.96044922 481.41699219 C97.93166464 496.31500327 68.51361377 505.96041257 38.875 510.3125 C37.67254639 510.48910156 36.47009277 510.66570312 35.23120117 510.84765625 C23.51493596 512.45161689 11.87584274 512.71324553 0.0625 512.6875 C-0.92433777 512.68662384 -1.91117554 512.68574768 -2.92791748 512.68484497 C-67.88219852 512.49532667 -130.29571624 487.41579016 -177.125 442.3125 C-177.78435547 441.68037598 -178.44371094 441.04825195 -179.12304688 440.39697266 C-188.61130305 431.25252521 -197.3512044 421.95515991 -205.125 411.3125 C-205.98306152 410.16144983 -206.84113451 409.01040823 -207.69921875 407.859375 C-213.73736829 399.66819386 -219.09595521 391.15445895 -224.125 382.3125 C-224.48948242 381.68069824 -224.85396484 381.04889648 -225.22949219 380.39794922 C-240.15973018 354.31285999 -249.63885054 324.97664886 -254.125 295.3125 C-254.38990234 293.62882324 -254.38990234 293.62882324 -254.66015625 291.91113281 C-256.3170586 280.29802257 -256.52373513 268.78070055 -256.5 257.0625 C-256.49945618 256.05048523 -256.49891235 255.03847046 -256.49835205 253.99578857 C-256.4576051 237.46132605 -255.53386907 221.54185136 -252.125 205.3125 C-251.91601074 204.29720215 -251.70702148 203.2819043 -251.49169922 202.23583984 C-242.71380189 160.92383315 -223.71113066 122.2919774 -196.125 90.3125 C-195.49078125 89.56742187 -194.8565625 88.82234375 -194.203125 88.0546875 C-182.39198485 74.54970167 -169.64139772 61.87831257 -155.125 51.3125 C-153.97505169 50.45600934 -152.82531411 49.59923567 -151.67578125 48.7421875 C-143.48410474 42.7015586 -134.96854922 37.34244929 -126.125 32.3125 C-125.49319824 31.94801758 -124.86139648 31.58353516 -124.21044922 31.20800781 C-98.17975097 16.30890142 -68.76448404 6.66904478 -39.125 2.3125 C-37.32675781 2.04651001 -37.32675781 2.04651001 -35.4921875 1.77514648 C-23.66616559 0.14661384 -11.92341476 -0.04652724 0 0 Z M-53.40625 149.59765625 C-54.3034375 150.49355469 -55.200625 151.38945312 -56.125 152.3125 C-56.7953125 152.97121094 -57.465625 153.62992188 -58.15625 154.30859375 C-70.22876335 167.06704535 -77.25588502 186.01727153 -79.125 203.3125 C-79.32416016 205.11267578 -79.32416016 205.11267578 -79.52734375 206.94921875 C-81.97280114 233.39293602 -77.66746745 262.19170941 -61.25 283.75 C-47.48391884 299.64622912 -30.95453459 307.91598365 -10.125 310.3125 C8.46162528 311.40520197 25.90486863 308.91953718 40.66870117 296.60131836 C47.49217754 290.53027806 52.5545867 283.33144892 56.875 275.3125 C56.875 274.6525 56.875 273.9925 56.875 273.3125 C57.535 273.3125 58.195 273.3125 58.875 273.3125 C57.97822452 332.39563562 57.97822452 332.39563562 42.875 351.3125 C40.07698507 354.0197685 37.15344483 356.22048538 33.875 358.3125 C32.95460938 358.90998047 32.95460938 358.90998047 32.015625 359.51953125 C17.72323996 367.67352015 -3.28966317 367.52463579 -18.875 363.625 C-31.6424611 359.90822123 -40.81662764 354.74318243 -47.765625 343.265625 C-49.6705515 339.1273364 -50.81593633 334.67604556 -52.125 330.3125 C-59.055 330.3125 -65.985 330.3125 -73.125 330.3125 C-71.74742745 342.71065295 -68.51860801 352.04112906 -60.125 361.3125 C-59.37669922 362.21548828 -59.37669922 362.21548828 -58.61328125 363.13671875 C-45.23651295 378.13082932 -23.21992497 382.72680176 -4.125 384.3125 C17.23612635 385.21120987 40.27569643 380.79499488 56.8125 366.5625 C74.3248314 349.56448083 79.63101352 324.46237585 80.09452271 300.86716545 C80.13121955 297.0783852 80.11999728 293.29056297 80.10205078 289.50170898 C80.1014848 287.7947897 80.10180687 286.08786993 80.10293579 284.38095093 C80.10350301 279.80561317 80.09185255 275.23038309 80.07778788 270.65507007 C80.06517371 265.85184465 80.06410168 261.04861601 80.06173706 256.24537659 C80.05555338 247.17589004 80.03918527 238.10645247 80.01903808 229.03698736 C79.99658146 218.70064191 79.98566125 208.36429396 79.97564721 198.02793014 C79.95481582 176.78942549 79.91929211 155.55096758 79.875 134.3125 C72.945 134.3125 66.015 134.3125 58.875 134.3125 C58.875 144.5425 58.875 154.7725 58.875 165.3125 C58.215 165.3125 57.555 165.3125 56.875 165.3125 C56.689375 164.508125 56.50375 163.70375 56.3125 162.875 C50.69438092 148.95183533 37.39231126 139.2271924 24.25 133.0625 C-1.83819535 122.08997805 -33.63540094 130.36509831 -53.40625 149.59765625 Z " fill="#000000" transform="translate(256.125,-0.3125)"/>
<path d="M0 0 C0.83337891 0.00563965 1.66675781 0.0112793 2.52539062 0.01708984 C17.51612631 0.31028587 29.56176399 5.50306634 40.46484375 15.8359375 C53.05644561 29.48222054 59.09133212 49.95571255 59.75 68.3125 C59.80994141 69.90771484 59.80994141 69.90771484 59.87109375 71.53515625 C60.2947759 94.04015534 54.89970545 115.40982374 39.1328125 132.05859375 C27.94890269 142.63747237 13.96479936 147.97539998 -1.45703125 147.55859375 C-17.70673926 146.1268013 -28.78812349 140.75416156 -40.25 129.3125 C-41.11431641 128.46558594 -41.11431641 128.46558594 -41.99609375 127.6015625 C-55.69929968 113.00853801 -58.94327968 90.28545199 -58.49609375 71.0625 C-57.62590239 50.10863829 -51.83000579 28.09368192 -36.05859375 13.25 C-25.28319847 4.44506415 -13.92295101 -0.09912597 0 0 Z " fill="#000000" transform="translate(255.25,145.6875)"/>
</svg>
